<svg id="Capa_1" enable-background="new 0 0 512 512" height="512" viewBox="0 0 512 512" width="512" xmlns="http://www.w3.org/2000/svg">
<path d="m325.796 94.71h-139.592c-50.45 0-91.494 41.044-91.494 91.493v139.593c0 50.45 41.044 91.493 91.494 91.493h139.592c50.45 0 91.494-41.044 91.494-91.493v-139.592c0-50.45-41.044-91.494-91.494-91.494zm-69.796 254.695c-53.401 0-96.847-43.445-96.847-96.847s43.445-96.846 96.847-96.846 96.847 43.445 96.847 96.846-43.446 96.847-96.847 96.847zm118.517-191.891c0 8.284-6.716 15-15 15s-15-6.716-15-15v-.277c0-8.284 6.716-15 15-15s15 6.716 15 15z"/><circle cx="256" cy="252.558" r="66.847"/><path d="m497 0h-482c-8.284 0-15 6.716-15 15v482c0 8.284 6.716 15 15 15h482c8.284 0 15-6.716 15-15v-482c0-8.284-6.716-15-15-15zm-49.71 325.796c0 66.992-54.502 121.493-121.494 121.493h-139.592c-66.992 0-121.494-54.502-121.494-121.493v-139.592c0-66.992 54.502-121.493 121.494-121.493h139.592c66.992 0 121.494 54.501 121.494 121.493z"/></svg>